<svg id="visual" viewBox="0 0 900 600" width="900" height="600" xmlns="http://www.w3.org/2000/svg" xmlns:xlink="http://www.w3.org/1999/xlink" version="1.1"><rect width="900" height="600" fill="#ffffff"></rect><g><g transform="translate(178 324)"><path d="M0 -42.9L37.2 -21.5L37.2 21.5L0 42.9L-37.2 21.5L-37.2 -21.5Z" fill="#bbffea"></path></g><g transform="translate(358 314)"><path d="M0 -29L25.1 -14.5L25.1 14.5L0 29L-25.1 14.5L-25.1 -14.5Z" fill="#bbffea"></path></g><g transform="translate(801 445)"><path d="M0 -39L33.8 -19.5L33.8 19.5L0 39L-33.8 19.5L-33.8 -19.5Z" fill="#bbffea"></path></g><g transform="translate(667 240)"><path d="M0 -40L34.6 -20L34.6 20L0 40L-34.6 20L-34.6 -20Z" fill="#bbffea"></path></g><g transform="translate(8 500)"><path d="M0 -38L32.9 -19L32.9 19L0 38L-32.9 19L-32.9 -19Z" fill="#bbffea"></path></g><g transform="translate(498 24)"><path d="M0 -21L18.2 -10.5L18.2 10.5L0 21L-18.2 10.5L-18.2 -10.5Z" fill="#bbffea"></path></g><g transform="translate(505 344)"><path d="M0 -24L20.8 -12L20.8 12L0 24L-20.8 12L-20.8 -12Z" fill="#bbffea"></path></g><g transform="translate(852 293)"><path d="M0 -39L33.8 -19.5L33.8 19.5L0 39L-33.8 19.5L-33.8 -19.5Z" fill="#bbffea"></path></g><g transform="translate(185 153)"><path d="M0 -31L26.8 -15.5L26.8 15.5L0 31L-26.8 15.5L-26.8 -15.5Z" fill="#bbffea"></path></g><g transform="translate(52 270)"><path d="M0 -34L29.4 -17L29.4 17L0 34L-29.4 17L-29.4 -17Z" fill="#bbffea"></path></g><g transform="translate(697 12)"><path d="M0 -30L26 -15L26 15L0 30L-26 15L-26 -15Z" fill="#bbffea"></path></g><g transform="translate(284 200)"><path d="M0 -28L24.2 -14L24.2 14L0 28L-24.2 14L-24.2 -14Z" fill="#bbffea"></path></g><g transform="translate(384 423)"><path d="M0 -40L34.6 -20L34.6 20L0 40L-34.6 20L-34.6 -20Z" fill="#bbffea"></path></g><g transform="translate(709 572)"><path d="M0 -23L19.9 -11.5L19.9 11.5L0 23L-19.9 11.5L-19.9 -11.5Z" fill="#bbffea"></path></g><g transform="translate(203 562)"><path d="M0 -29L25.1 -14.5L25.1 14.5L0 29L-25.1 14.5L-25.1 -14.5Z" fill="#bbffea"></path></g><g transform="translate(243 77)"><path d="M0 -35L30.3 -17.5L30.3 17.5L0 35L-30.3 17.5L-30.3 -17.5Z" fill="#bbffea"></path></g></g></svg>