<svg id="visual" viewBox="0 0 900 200" width="900" height="200" xmlns="http://www.w3.org/2000/svg" xmlns:xlink="http://www.w3.org/1999/xlink" version="1.1"><path d="M0 33L82 41L164 25L245 31L327 51L409 29L491 25L573 41L655 51L736 53L818 47L900 49L900 0L818 0L736 0L655 0L573 0L491 0L409 0L327 0L245 0L164 0L82 0L0 0Z" fill="#ffffff"></path><path d="M0 99L82 77L164 103L245 123L327 115L409 101L491 109L573 111L655 123L736 103L818 103L900 111L900 47L818 45L736 51L655 49L573 39L491 23L409 27L327 49L245 29L164 23L82 39L0 31Z" fill="#edfffc"></path><path d="M0 115L82 107L164 117L245 141L327 135L409 129L491 131L573 135L655 139L736 119L818 135L900 137L900 109L818 101L736 101L655 121L573 109L491 107L409 99L327 113L245 121L164 101L82 75L0 97Z" fill="#dafffa"></path><path d="M0 133L82 121L164 159L245 161L327 155L409 167L491 147L573 161L655 175L736 141L818 173L900 159L900 135L818 133L736 117L655 137L573 133L491 129L409 127L327 133L245 139L164 115L82 105L0 113Z" fill="#c6fff8"></path><path d="M0 201L82 201L164 201L245 201L327 201L409 201L491 201L573 201L655 201L736 201L818 201L900 201L900 157L818 171L736 139L655 173L573 159L491 145L409 165L327 153L245 159L164 157L82 119L0 131Z" fill="#b0fff6"></path></svg>